<svg xmlns="http://www.w3.org/2000/svg" viewBox="0 0 294.74 124.22"><defs><style>.cls-1{fill:#2d2a70;}.cls-2{fill:#ed6b23;}</style></defs><title>Logo KAI Baru</title><g id="Layer_2"><g id="Layer_1-2"><path class="cls-1" d="M99.58,124.22h28.56l-6.55-10.77Zm16.67-19.53L86.56,55.91,144.12,0H98.65a13.65,13.65,0,0,0-9.54,3.88L48.79,43.28,53.33,0H12.27L0,116.81a6.71,6.71,0,0,0,6.68,7.42h33.6L43.07,98,55.45,86l21.78,34.43a8.13,8.13,0,0,0,6.87,3.78H99.58l7.81-15.57Z"/><path class="cls-2" d="M141,124.22l55.61-33.81,7.08,28.71a6.71,6.71,0,0,0,6.52,5.11h36L230.13,70l61.24-37.24.26-2.5-192,93.95Zm83.38-73.65L209.37,0H174a19.52,19.52,0,0,0-17.45,10.77L106,111.37,292,26.52l.29-2.85ZM164.6,74.24,177,48l3.27-7.25a2.23,2.23,0,0,1,4.19.38l5.67,23Z"/><path class="cls-1" d="M269.53,0a19.52,19.52,0,0,0-19.41,17.49l-2.5,23.88,44.69-17.7L294.74,0Zm-30.6,124.22h43l9.42-91.45L245.6,60.61Z"/></g></g></svg>